<mxfile host="65bd71144e">
    <diagram id="F9KLMmbkQVZtO3q0j8SC" name="Page-1">
        <mxGraphModel dx="1428" dy="549" grid="1" gridSize="10" guides="1" tooltips="1" connect="1" arrows="1" fold="1" page="1" pageScale="1" pageWidth="850" pageHeight="1100" math="0" shadow="0">
            <root>
                <mxCell id="0"/>
                <mxCell id="1" parent="0"/>
                <mxCell id="5" value="Voter" style="shape=umlLifeline;perimeter=lifelinePerimeter;whiteSpace=wrap;html=1;container=1;collapsible=0;recursiveResize=0;outlineConnect=0;fontSize=13;" parent="1" vertex="1">
                    <mxGeometry x="100" y="170" width="100" height="340" as="geometry"/>
                </mxCell>
                <mxCell id="9" value="" style="html=1;points=[];perimeter=orthogonalPerimeter;fontSize=13;" parent="5" vertex="1">
                    <mxGeometry x="45" y="60" width="10" height="80" as="geometry"/>
                </mxCell>
                <mxCell id="6" value="Online Voting System" style="shape=umlLifeline;perimeter=lifelinePerimeter;whiteSpace=wrap;html=1;container=1;collapsible=0;recursiveResize=0;outlineConnect=0;fontSize=13;" parent="1" vertex="1">
                    <mxGeometry x="280" y="170" width="100" height="340" as="geometry"/>
                </mxCell>
                <mxCell id="11" value="" style="html=1;points=[];perimeter=orthogonalPerimeter;fontSize=13;" parent="6" vertex="1">
                    <mxGeometry x="45" y="60" width="10" height="80" as="geometry"/>
                </mxCell>
                <mxCell id="7" value="Server" style="shape=umlLifeline;perimeter=lifelinePerimeter;whiteSpace=wrap;html=1;container=1;collapsible=0;recursiveResize=0;outlineConnect=0;fontSize=13;" parent="1" vertex="1">
                    <mxGeometry x="450" y="170" width="100" height="340" as="geometry"/>
                </mxCell>
                <mxCell id="12" value="" style="html=1;points=[];perimeter=orthogonalPerimeter;fontSize=13;" parent="7" vertex="1">
                    <mxGeometry x="45" y="60" width="10" height="80" as="geometry"/>
                </mxCell>
                <mxCell id="13" style="edgeStyle=none;html=1;fontSize=13;" parent="1" source="9" target="6" edge="1">
                    <mxGeometry relative="1" as="geometry">
                        <Array as="points">
                            <mxPoint x="220" y="250"/>
                        </Array>
                    </mxGeometry>
                </mxCell>
                <mxCell id="14" value="voter_info" style="edgeLabel;html=1;align=center;verticalAlign=bottom;resizable=0;points=[];labelPosition=center;verticalLabelPosition=top;fontSize=13;" parent="13" vertex="1" connectable="0">
                    <mxGeometry x="0.2837" y="1" relative="1" as="geometry">
                        <mxPoint x="-27" y="1" as="offset"/>
                    </mxGeometry>
                </mxCell>
                <mxCell id="15" style="edgeStyle=none;html=1;fontSize=13;dashed=1;" parent="1" edge="1">
                    <mxGeometry relative="1" as="geometry">
                        <mxPoint x="325" y="290" as="sourcePoint"/>
                        <mxPoint x="149.5" y="290" as="targetPoint"/>
                        <Array as="points">
                            <mxPoint x="310" y="290"/>
                        </Array>
                    </mxGeometry>
                </mxCell>
                <mxCell id="16" value="provide_id" style="edgeLabel;html=1;align=center;verticalAlign=top;resizable=0;points=[];fontSize=13;labelPosition=center;verticalLabelPosition=bottom;" parent="15" vertex="1" connectable="0">
                    <mxGeometry x="-0.4188" y="3" relative="1" as="geometry">
                        <mxPoint x="-34" y="-27" as="offset"/>
                    </mxGeometry>
                </mxCell>
                <mxCell id="17" style="edgeStyle=none;html=1;fontSize=13;" parent="1" source="11" target="7" edge="1">
                    <mxGeometry relative="1" as="geometry">
                        <Array as="points">
                            <mxPoint x="400" y="250"/>
                        </Array>
                    </mxGeometry>
                </mxCell>
                <mxCell id="18" value="check_voter" style="edgeLabel;html=1;align=center;verticalAlign=middle;resizable=0;points=[];fontSize=13;" parent="17" vertex="1" connectable="0">
                    <mxGeometry x="0.4347" y="-1" relative="1" as="geometry">
                        <mxPoint x="-33" y="-11" as="offset"/>
                    </mxGeometry>
                </mxCell>
                <mxCell id="19" style="edgeStyle=none;html=1;fontSize=13;dashed=1;" parent="1" source="12" target="6" edge="1">
                    <mxGeometry relative="1" as="geometry">
                        <Array as="points">
                            <mxPoint x="450" y="290"/>
                        </Array>
                    </mxGeometry>
                </mxCell>
                <mxCell id="20" value="register_voter" style="edgeLabel;html=1;align=center;verticalAlign=middle;resizable=0;points=[];fontSize=13;" parent="19" vertex="1" connectable="0">
                    <mxGeometry x="-0.3233" y="-1" relative="1" as="geometry">
                        <mxPoint x="-19" y="-9" as="offset"/>
                    </mxGeometry>
                </mxCell>
                <mxCell id="25" style="edgeStyle=none;html=1;fontSize=13;" parent="1" edge="1">
                    <mxGeometry relative="1" as="geometry">
                        <mxPoint x="155" y="350" as="sourcePoint"/>
                        <mxPoint x="329.5" y="350" as="targetPoint"/>
                        <Array as="points">
                            <mxPoint x="210" y="350"/>
                        </Array>
                    </mxGeometry>
                </mxCell>
                <mxCell id="26" value="id_info" style="edgeLabel;html=1;align=center;verticalAlign=middle;resizable=0;points=[];fontSize=13;" parent="25" vertex="1" connectable="0">
                    <mxGeometry x="-0.1862" y="-2" relative="1" as="geometry">
                        <mxPoint x="14" y="-12" as="offset"/>
                    </mxGeometry>
                </mxCell>
                <mxCell id="22" value="" style="html=1;points=[];perimeter=orthogonalPerimeter;fontSize=13;" parent="1" vertex="1">
                    <mxGeometry x="145" y="330" width="10" height="80" as="geometry"/>
                </mxCell>
                <mxCell id="27" style="edgeStyle=none;html=1;fontSize=13;" parent="1" edge="1">
                    <mxGeometry relative="1" as="geometry">
                        <mxPoint x="335" y="350" as="sourcePoint"/>
                        <mxPoint x="499.5" y="350" as="targetPoint"/>
                        <Array as="points">
                            <mxPoint x="350" y="350"/>
                        </Array>
                    </mxGeometry>
                </mxCell>
                <mxCell id="28" value="cast_vote" style="edgeLabel;html=1;align=center;verticalAlign=middle;resizable=0;points=[];fontSize=13;" parent="27" vertex="1" connectable="0">
                    <mxGeometry x="-0.2948" y="-2" relative="1" as="geometry">
                        <mxPoint x="17" y="-12" as="offset"/>
                    </mxGeometry>
                </mxCell>
                <mxCell id="31" style="edgeStyle=none;html=1;fontSize=13;dashed=1;" parent="1" edge="1">
                    <mxGeometry relative="1" as="geometry">
                        <mxPoint x="325" y="390" as="sourcePoint"/>
                        <mxPoint x="149.5" y="390" as="targetPoint"/>
                        <Array as="points">
                            <mxPoint x="220" y="390"/>
                        </Array>
                    </mxGeometry>
                </mxCell>
                <mxCell id="32" value="alert_msg" style="edgeLabel;html=1;align=center;verticalAlign=middle;resizable=0;points=[];fontSize=13;" parent="31" vertex="1" connectable="0">
                    <mxGeometry x="-0.5328" y="-2" relative="1" as="geometry">
                        <mxPoint x="-44" y="-8" as="offset"/>
                    </mxGeometry>
                </mxCell>
                <mxCell id="23" value="" style="html=1;points=[];perimeter=orthogonalPerimeter;fontSize=13;" parent="1" vertex="1">
                    <mxGeometry x="325" y="330" width="10" height="80" as="geometry"/>
                </mxCell>
                <mxCell id="29" style="edgeStyle=none;html=1;fontSize=13;dashed=1;" parent="1" edge="1">
                    <mxGeometry relative="1" as="geometry">
                        <mxPoint x="495" y="390" as="sourcePoint"/>
                        <mxPoint x="329.5" y="390" as="targetPoint"/>
                        <Array as="points">
                            <mxPoint x="450" y="390"/>
                        </Array>
                    </mxGeometry>
                </mxCell>
                <mxCell id="30" value="vote_status" style="edgeLabel;html=1;align=center;verticalAlign=middle;resizable=0;points=[];fontSize=13;" parent="29" vertex="1" connectable="0">
                    <mxGeometry x="-0.1299" y="-1" relative="1" as="geometry">
                        <mxPoint x="-13" y="-9" as="offset"/>
                    </mxGeometry>
                </mxCell>
                <mxCell id="24" value="" style="html=1;points=[];perimeter=orthogonalPerimeter;fontSize=13;" parent="1" vertex="1">
                    <mxGeometry x="495" y="330" width="10" height="80" as="geometry"/>
                </mxCell>
                <mxCell id="35" style="edgeStyle=none;html=1;fontSize=13;" parent="1" edge="1" source="54">
                    <mxGeometry relative="1" as="geometry">
                        <mxPoint x="155" y="437" as="sourcePoint"/>
                        <mxPoint x="329.5" y="437" as="targetPoint"/>
                        <Array as="points">
                            <mxPoint x="190" y="437"/>
                        </Array>
                    </mxGeometry>
                </mxCell>
                <mxCell id="36" value="view_request" style="edgeLabel;html=1;align=center;verticalAlign=middle;resizable=0;points=[];fontSize=13;" parent="35" vertex="1" connectable="0">
                    <mxGeometry x="-0.0946" y="-3" relative="1" as="geometry">
                        <mxPoint x="-71" y="-12" as="offset"/>
                    </mxGeometry>
                </mxCell>
                <mxCell id="42" style="edgeStyle=none;html=1;fontSize=13;" parent="1" edge="1">
                    <mxGeometry relative="1" as="geometry">
                        <mxPoint x="335" y="437" as="sourcePoint"/>
                        <mxPoint x="499.5" y="437" as="targetPoint"/>
                        <Array as="points">
                            <mxPoint x="430" y="437"/>
                        </Array>
                    </mxGeometry>
                </mxCell>
                <mxCell id="43" value="report_request" style="edgeLabel;html=1;align=center;verticalAlign=middle;resizable=0;points=[];fontSize=13;" parent="42" vertex="1" connectable="0">
                    <mxGeometry x="0.3374" y="-2" relative="1" as="geometry">
                        <mxPoint x="-35" y="-12" as="offset"/>
                    </mxGeometry>
                </mxCell>
                <mxCell id="46" style="edgeStyle=none;html=1;fontSize=13;dashed=1;" parent="1" edge="1" target="52">
                    <mxGeometry relative="1" as="geometry">
                        <mxPoint x="325" y="468.99" as="sourcePoint"/>
                        <mxPoint x="154" y="468.99" as="targetPoint"/>
                    </mxGeometry>
                </mxCell>
                <mxCell id="48" value="vote_report" style="edgeLabel;html=1;align=center;verticalAlign=middle;resizable=0;points=[];fontSize=13;" parent="46" vertex="1" connectable="0">
                    <mxGeometry x="0.2632" y="-1" relative="1" as="geometry">
                        <mxPoint x="-37" y="-9" as="offset"/>
                    </mxGeometry>
                </mxCell>
                <mxCell id="38" value="" style="html=1;points=[];perimeter=orthogonalPerimeter;fontSize=13;" parent="1" vertex="1">
                    <mxGeometry x="325" y="430" width="10" height="50" as="geometry"/>
                </mxCell>
                <mxCell id="44" style="edgeStyle=none;html=1;fontSize=13;dashed=1;" parent="1" edge="1">
                    <mxGeometry relative="1" as="geometry">
                        <mxPoint x="495" y="469" as="sourcePoint"/>
                        <mxPoint x="329.5" y="469" as="targetPoint"/>
                        <Array as="points">
                            <mxPoint x="430" y="469"/>
                        </Array>
                    </mxGeometry>
                </mxCell>
                <mxCell id="47" value="generate_report" style="edgeLabel;html=1;align=center;verticalAlign=middle;resizable=0;points=[];fontSize=13;" parent="44" vertex="1" connectable="0">
                    <mxGeometry x="0.1118" y="4" relative="1" as="geometry">
                        <mxPoint y="-14" as="offset"/>
                    </mxGeometry>
                </mxCell>
                <mxCell id="39" value="" style="html=1;points=[];perimeter=orthogonalPerimeter;fontSize=13;" parent="1" vertex="1">
                    <mxGeometry x="495" y="430" width="10" height="50" as="geometry"/>
                </mxCell>
                <mxCell id="52" value="Administrator" style="shape=umlLifeline;perimeter=lifelinePerimeter;whiteSpace=wrap;html=1;container=1;collapsible=0;recursiveResize=0;outlineConnect=0;fontSize=13;" vertex="1" parent="1">
                    <mxGeometry x="-70" y="170" width="100" height="340" as="geometry"/>
                </mxCell>
                <mxCell id="54" value="" style="html=1;points=[];perimeter=orthogonalPerimeter;fontSize=13;" vertex="1" parent="52">
                    <mxGeometry x="45" y="260" width="10" height="50" as="geometry"/>
                </mxCell>
            </root>
        </mxGraphModel>
    </diagram>
</mxfile>